HIERARCHY
ROOT Hips
{
  OFFSET 1.73907 43.2358 0.0522707
  CHANNELS 6 Xposition Yposition Zposition Zrotation Xrotation Yrotation
  JOINT Bip01_Pelvis
  {
    OFFSET 0 0 0
    CHANNELS 6 Xposition Yposition Zposition Zrotation Xrotation Yrotation
    JOINT BN_Tail_01
    {
      OFFSET -2.28979 -2.39917 0
      CHANNELS 6 Xposition Yposition Zposition Zrotation Xrotation Yrotation
      JOINT BN_Tail_02
      {
        OFFSET 9.67405 0 0
        CHANNELS 6 Xposition Yposition Zposition Zrotation Xrotation Yrotation
        JOINT BN_Tail_03
        {
          OFFSET 10.5192 0 -1.14441e-005
          CHANNELS 6 Xposition Yposition Zposition Zrotation Xrotation Yrotation
          JOINT BN_Tail_04
          {
            OFFSET 8.16754 0 0
            CHANNELS 6 Xposition Yposition Zposition Zrotation Xrotation Yrotation
            End Site
            {
              OFFSET 0 0 0
            }
          }
        }
      }
    }
    JOINT Bip01_Spine
    {
      OFFSET 2.25317 -0.00479889 0
      CHANNELS 6 Xposition Yposition Zposition Zrotation Xrotation Yrotation
      JOINT Bip01_R_Thigh
      {
        OFFSET -2.32652 -0.461891 -2.25534
        CHANNELS 6 Xposition Yposition Zposition Zrotation Xrotation Yrotation
        JOINT Bip01_R_Calf
        {
          OFFSET 9.47902 0 0
          CHANNELS 6 Xposition Yposition Zposition Zrotation Xrotation Yrotation
          JOINT Bip01_R_Foot
          {
            OFFSET 8.42616 0 0
            CHANNELS 6 Xposition Yposition Zposition Zrotation Xrotation Yrotation
            JOINT Bip01_R_Toe1
            {
              OFFSET 1.4015 3.97627 -1.33795
              CHANNELS 6 Xposition Yposition Zposition Zrotation Xrotation Yrotation
              JOINT Bip01_R_Toe11
              {
                OFFSET 2.94553 0 0
                CHANNELS 6 Xposition Yposition Zposition Zrotation Xrotation Yrotation
                JOINT Bip01_R_Toe1Nub
                {
                  OFFSET 2.52656 0 0
                  CHANNELS 6 Xposition Yposition Zposition Zrotation Xrotation Yrotation
                  End Site
                  {
                    OFFSET 0 0 0
                  }
                }
              }
            }
            JOINT Bip01_R_Toe0
            {
              OFFSET 2.09729 6.93129 0.0277901
              CHANNELS 6 Xposition Yposition Zposition Zrotation Xrotation Yrotation
              JOINT Bip01_R_Toe01
              {
                OFFSET 3.0714 0 0
                CHANNELS 6 Xposition Yposition Zposition Zrotation Xrotation Yrotation
                JOINT Bip01_R_Toe0Nub
                {
                  OFFSET 3.37999 0 0
                  CHANNELS 6 Xposition Yposition Zposition Zrotation Xrotation Yrotation
                  End Site
                  {
                    OFFSET 0 0 0
                  }
                }
              }
            }
          }
        }
      }
      JOINT Bip01_L_Thigh
      {
        OFFSET -2.07803 -0.462101 2.48614
        CHANNELS 6 Xposition Yposition Zposition Zrotation Xrotation Yrotation
        JOINT Bip01_L_Calf
        {
          OFFSET 9.47902 0 0
          CHANNELS 6 Xposition Yposition Zposition Zrotation Xrotation Yrotation
          JOINT Bip01_L_Foot
          {
            OFFSET 8.42617 0 0
            CHANNELS 6 Xposition Yposition Zposition Zrotation Xrotation Yrotation
            JOINT Bip01_L_Toe1
            {
              OFFSET 1.40151 3.97627 1.33796
              CHANNELS 6 Xposition Yposition Zposition Zrotation Xrotation Yrotation
              JOINT Bip01_L_Toe11
              {
                OFFSET 2.94554 0 0
                CHANNELS 6 Xposition Yposition Zposition Zrotation Xrotation Yrotation
                JOINT Bip01_L_Toe1Nub
                {
                  OFFSET 2.52656 0 0
                  CHANNELS 6 Xposition Yposition Zposition Zrotation Xrotation Yrotation
                  End Site
                  {
                    OFFSET 0 0 0
                  }
                }
              }
            }
            JOINT Bip01_L_Toe0
            {
              OFFSET 2.0973 6.93128 -0.0277834
              CHANNELS 6 Xposition Yposition Zposition Zrotation Xrotation Yrotation
              JOINT Bip01_L_Toe01
              {
                OFFSET 3.07141 0 0
                CHANNELS 6 Xposition Yposition Zposition Zrotation Xrotation Yrotation
                JOINT Bip01_L_Toe0Nub
                {
                  OFFSET 3.37999 0 0
                  CHANNELS 6 Xposition Yposition Zposition Zrotation Xrotation Yrotation
                  End Site
                  {
                    OFFSET 0 0 0
                  }
                }
              }
            }
          }
        }
      }
      JOINT Bip01_Spine1
      {
        OFFSET 6.17162 -0.00484467 0
        CHANNELS 6 Xposition Yposition Zposition Zrotation Xrotation Yrotation
        JOINT BN_R_Clavicle_01
        {
          OFFSET 6.15897 -2.02444 -2.78435
          CHANNELS 6 Xposition Yposition Zposition Zrotation Xrotation Yrotation
          JOINT BN_R_UpperArm_01
          {
            OFFSET 3.43915 0 0
            CHANNELS 6 Xposition Yposition Zposition Zrotation Xrotation Yrotation
            JOINT BN_R__Forearm_01
            {
              OFFSET 10.2529 0 0
              CHANNELS 6 Xposition Yposition Zposition Zrotation Xrotation Yrotation
              JOINT BN_R_Hand_01
              {
                OFFSET 16.2051 0 0
                CHANNELS 6 Xposition Yposition Zposition Zrotation Xrotation Yrotation
                JOINT BN_R_Finger_07
                {
                  OFFSET 2.2539 2.19923 0.192043
                  CHANNELS 6 Xposition Yposition Zposition Zrotation Xrotation Yrotation
                  End Site
                  {
                    OFFSET 0 0 0
                  }
                }
                JOINT BN_R_Finger_01
                {
                  OFFSET 2.17806 -1.99631 -0.219296
                  CHANNELS 6 Xposition Yposition Zposition Zrotation Xrotation Yrotation
                  End Site
                  {
                    OFFSET 0 0 0
                  }
                }
                JOINT BN_R_Finger_05
                {
                  OFFSET 3.30715 1.42802 0.17391
                  CHANNELS 6 Xposition Yposition Zposition Zrotation Xrotation Yrotation
                  End Site
                  {
                    OFFSET 0 0 0
                  }
                }
                JOINT BN_R_Finger_03
                {
                  OFFSET 3.93641 -0.769831 0.580946
                  CHANNELS 6 Xposition Yposition Zposition Zrotation Xrotation Yrotation
                  End Site
                  {
                    OFFSET 0 0 0
                  }
                }
              }
            }
          }
        }
        JOINT BN_L_Clavicle_01
        {
          OFFSET 6.15897 -2.02445 2.78458
          CHANNELS 6 Xposition Yposition Zposition Zrotation Xrotation Yrotation
          JOINT BN_L_UpperArm_01
          {
            OFFSET 3.43915 0 0
            CHANNELS 6 Xposition Yposition Zposition Zrotation Xrotation Yrotation
            JOINT BN_L__Forearm_01
            {
              OFFSET 10.2529 0 0
              CHANNELS 6 Xposition Yposition Zposition Zrotation Xrotation Yrotation
              JOINT BN_L_Hand_01
              {
                OFFSET 16.2051 0 0
                CHANNELS 6 Xposition Yposition Zposition Zrotation Xrotation Yrotation
                JOINT BN_L_Finger_05
                {
                  OFFSET 3.30715 -1.42803 0.173891
                  CHANNELS 6 Xposition Yposition Zposition Zrotation Xrotation Yrotation
                  End Site
                  {
                    OFFSET 0 0 0
                  }
                }
                JOINT BN_L_Finger_07
                {
                  OFFSET 2.2539 -2.19925 0.19203
                  CHANNELS 6 Xposition Yposition Zposition Zrotation Xrotation Yrotation
                  End Site
                  {
                    OFFSET 0 0 0
                  }
                }
                JOINT BN_L_Finger_01
                {
                  OFFSET 2.17804 1.99629 -0.219303
                  CHANNELS 6 Xposition Yposition Zposition Zrotation Xrotation Yrotation
                  End Site
                  {
                    OFFSET 0 0 0
                  }
                }
                JOINT BN_L_Finger_03
                {
                  OFFSET 3.9364 0.769825 0.580943
                  CHANNELS 6 Xposition Yposition Zposition Zrotation Xrotation Yrotation
                  End Site
                  {
                    OFFSET 0 0 0
                  }
                }
              }
            }
          }
        }
        JOINT Bip01_Neck
        {
          OFFSET 7.02381 -0.81237 0
          CHANNELS 6 Xposition Yposition Zposition Zrotation Xrotation Yrotation
          JOINT Bip01_Head
          {
            OFFSET 1.54249 1.14441e-005 0
            CHANNELS 6 Xposition Yposition Zposition Zrotation Xrotation Yrotation
            JOINT BN_Mouth_01
            {
              OFFSET 2.32836 0.166542 0
              CHANNELS 6 Xposition Yposition Zposition Zrotation Xrotation Yrotation
              End Site
              {
                OFFSET 0 0 0
              }
            }
            JOINT BN_R_Ear_01
            {
              OFFSET 3.4208 -0.773972 -2.25959
              CHANNELS 6 Xposition Yposition Zposition Zrotation Xrotation Yrotation
              End Site
              {
                OFFSET 0 0 0
              }
            }
            JOINT BN_L_Ear_01
            {
              OFFSET 3.4208 -0.773976 2.25975
              CHANNELS 6 Xposition Yposition Zposition Zrotation Xrotation Yrotation
              End Site
              {
                OFFSET 0 0 0
              }
            }
            JOINT Bip01_HeadNub
            {
              OFFSET 6.74789 0 0
              CHANNELS 6 Xposition Yposition Zposition Zrotation Xrotation Yrotation
              End Site
              {
                OFFSET 0 0 0
              }
            }
          }
        }
      }
    }
  }
}
MOTION
Frames:	4
Frame Time:	0.0333333
22.8573 67.7502 2.65908 -29.6833 -89.4883 54.1465 0 0 0 -89.9965 -3.50835e-015 -90 -2.28979 -2.39919 3.55271e-015 -81.3605 77.0809 -107.928 9.67406 -2.38419e-007 7.6294e-006 -7.99986 -8.24985 11.4542 10.5192 5.96046e-008 1.42109e-014 -4.12706 8.24428 23.1308 8.16754 -2.86102e-006 -1.14441e-005 -5.05461 7.80564 27.2542 2.25378 -0.004879 8.88178e-016 -8.82123 -4.50032 7.2474 -1.90811 -0.152621 -2.6558 -22.7022 -5.69861 175.173 9.47902 0 9.53675e-007 -62.0194 -9.70719e-007 -1.44509e-007 8.42616 2.13163e-014 -3.55271e-015 -22.8848 11.2308 1.26932 1.4015 3.97628 -1.33794 106.272 -29.1306 41.3075 2.94554 3.41061e-013 0 -17.6535 -6.97613e-006 8.00391e-006 2.52656 3.8147e-006 -2.80665e-013 -9.32879e-006 4.90149e-006 9.31219e-006 2.09729 6.9313 0.0278104 51.4788 -9.94151e-006 1.34412e-005 3.07141 3.8147e-006 -2.38419e-007 -44.3671 -1.21245e-006 -8.85427e-008 3.37999 1.90735e-006 2.38419e-007 -6.89702e-007 -2.00488e-007 -1.33564e-007 -2.50566 -0.524935 2.03969 -28.0073 6.72937 -170.407 9.47902 1.42109e-014 -1.77636e-015 -55.3112 -9.9563e-006 -1.44714e-005 8.42617 2.98073e-011 -0.000957489 -31.4209 7.9853 4.94409 1.40165 3.97637 1.33752 72.2858 45.6917 -20.0555 2.94554 1.35003e-013 -3.8147e-006 -19.6777 0.00534247 -0.0112501 2.52656 3.8147e-006 1.90735e-006 -179.961 2.0196e-005 0.00419744 2.09735 6.93127 -0.028512 70.9446 3.2034e-007 8.10961e-008 3.07141 7.62939e-006 9.53675e-007 -32.7618 0.0320854 -0.0277162 3.38 1.90733e-006 0.000725746 -179.963 0.00595393 0.0123077 6.1717 -0.00487137 -0.00014472 1.40353 6.30798 -13.9399 6.15899 -2.02445 -2.78435 -178.154 9.14191 77.7759 3.43915 0 0 65.0347 57.1355 -58.8311 10.2529 7.62939e-006 5.68435e-014 -25.8743 2.42533 1.17453 16.2051 -1.90731e-006 -0.00157929 18.374 -16.2342 1.61964 2.25397 2.19919 0.19194 58.3344 0.472831 -0.171787 2.17802 -1.99633 -0.219591 -71.1904 -0.214895 10.6224 3.3072 1.42796 0.173676 28.6775 7.84831 19.2278 3.93644 -0.769921 0.58055 -10.8936 -3.16883 21.9676 6.15898 -2.02445 2.78458 1.22267 6.29872 -102.297 3.43915 -7.10543e-015 3.8147e-006 -13.9593 -70.6143 -7.91057 10.2529 1.06581e-014 -1.90735e-006 15.5252 -11.5717 0.0786241 16.2051 -6.82121e-013 1.90735e-006 -8.51043 9.26885 8.21509 3.30715 -1.42803 0.173888 -22.5908 1.37698 41.5638 2.25391 -2.19924 0.19203 -66.2036 -5.51707 8.39623 2.17805 1.9963 -0.219301 70.9949 0.178849 11.8703 3.9364 0.769829 0.580936 2.2271 0.52775 19.1244 7.02382 -0.812382 -2.87366e-009 10.998 -2.7441e-006 6.76028e-007 1.54248 3.8147e-006 4.76837e-007 -94.083 -4.60298 -5.96397 2.10595 -0.356756 0.0332334 -40.9525 -0.194237 -178.478 3.42081 -0.77397 -2.25959 -171.599 -26.2382 171.201 3.42081 -0.773978 2.25975 10.031 27.5231 -6.49616 6.7479 7.10543e-015 -5.96047e-008 2.32843e-007 -3.88074e-008 2.48377e-008 
23.1448 67.6716 2.66924 -33.215 -89.4726 50.7002 0 0 0 -89.9965 -3.50835e-015 -90 -2.28979 -2.39919 2.22045e-015 -85.7914 77.1089 -105.545 9.67406 -2.38419e-007 7.6294e-006 -7.2969 -8.89138 12.8432 10.5192 5.96046e-008 0 -8.41117 10.521 22.3076 8.16754 -2.86102e-006 -1.14441e-005 -11.4814 9.29015 27.5149 2.25378 -0.004879 0 -9.14791 -4.56302 7.22781 -1.90684 -0.161926 -2.65606 -22.0888 -5.53144 174.944 9.47902 0 9.53675e-007 -62.7917 -5.50944e-007 -3.545e-007 8.42616 7.10543e-015 0 -23.2442 11.89 1.88398 1.4015 3.97628 -1.33794 105.666 -29.5935 41.0106 2.94554 3.48166e-013 0 -17.6535 -6.82751e-006 8.06686e-006 2.52656 3.8147e-006 -2.73559e-013 -9.32879e-006 4.90149e-006 9.31219e-006 2.09729 6.9313 0.0278104 49.6457 -1.03477e-005 1.31231e-005 3.07141 3.8147e-006 -2.38419e-007 -46.4625 -1.26219e-005 1.08038e-005 3.37999 1.90735e-006 2.38419e-007 -6.89702e-007 -2.00488e-007 -1.33564e-007 -2.50282 -0.539386 2.03922 -28.3588 6.73176 -170.496 9.47902 7.10543e-015 0 -57.0658 -1.79158e-005 -9.3077e-006 8.42617 2.99778e-011 -0.000957489 -32.8464 8.09218 5.18118 1.40165 3.97637 1.33752 72.2851 45.6919 -20.055 2.94554 1.06581e-013 -3.8147e-006 -19.6772 0.00513076 -0.0106585 2.52656 3.8147e-006 1.90735e-006 -179.961 2.0196e-005 0.00419744 2.09735 6.93127 -0.028512 69.934 2.47693e-007 1.19106e-007 3.07141 7.62939e-006 9.53675e-007 -31.2123 0.0298802 -0.0261903 3.38 1.90733e-006 0.000725746 -179.963 0.00595393 0.0123077 6.1717 -0.00487137 -0.00014472 1.87221 6.21538 -13.9784 6.15899 -2.02445 -2.78435 -178.154 9.14187 77.7759 3.43915 -2.13163e-014 -2.13163e-014 65.4622 57.5481 -58.3575 10.2529 7.62939e-006 5.68435e-014 -25.8743 2.42532 1.17452 16.2051 -1.90729e-006 -0.00157929 18.3779 -16.15 1.69375 2.25397 2.19919 0.19194 58.3175 0.475963 2.46499 2.17802 -1.99633 -0.219591 -71.1853 -0.213816 10.5307 3.3072 1.42796 0.173676 28.6859 7.87327 16.5735 3.93644 -0.769921 0.58055 -10.8977 -3.18696 24.5978 6.15898 -2.02445 2.78458 1.22266 6.29865 -102.297 3.43915 0 3.8147e-006 -14.2449 -70.9118 -7.16792 10.2529 2.84217e-014 -1.90735e-006 15.5252 -11.5717 0.0786244 16.2051 -6.89227e-013 1.90735e-006 -8.51887 9.27042 7.97752 3.30715 -1.42803 0.173888 -22.5879 1.38473 38.9143 2.25391 -2.19924 0.19203 -66.208 -5.53394 11.0319 2.17805 1.9963 -0.219301 70.9996 0.179397 11.5066 3.9364 0.769829 0.580936 2.20454 0.518623 21.7521 7.02382 -0.812382 -2.90871e-009 10.998 -2.74367e-006 6.75557e-007 1.54248 3.8147e-006 4.76837e-007 -95.0452 -4.53505 -5.9358 2.10595 -0.356756 0.0332334 -40.4906 -0.208629 -178.41 3.42081 -0.77397 -2.25959 -171.507 -24.9566 172.702 3.42081 -0.773978 2.25975 10.2271 26.313 -8.07092 6.7479 0 -5.96047e-008 2.32843e-007 -3.88074e-008 2.48377e-008 
23.3794 67.5979 2.67739 -36.4588 -89.4554 47.5122 0 0 0 -89.9965 -3.50835e-015 -90 -2.28979 -2.39919 2.66454e-015 -89.3946 77.3674 -103.311 9.67406 -2.38419e-007 7.6294e-006 -6.61035 -9.3183 13.2075 10.5192 5.96046e-008 -4.26326e-014 -11.2018 12.3845 21.2298 8.16754 -2.86102e-006 -1.14441e-005 -15.8026 10.2627 27.376 2.25378 -0.004879 4.44089e-016 -9.40279 -4.62061 7.21437 -1.90558 -0.171051 -2.65632 -21.3568 -5.37275 174.71 9.47902 -1.42109e-014 9.53675e-007 -63.1653 -5.43278e-007 -3.45312e-007 8.42616 0 0 -23.7141 12.3926 2.47501 1.4015 3.97628 -1.33794 105.066 -30.0448 40.7127 2.94554 3.19744e-013 -7.10543e-015 -17.6535 -6.69448e-006 8.12208e-006 2.52656 3.8147e-006 -2.80665e-013 -9.32879e-006 4.90149e-006 9.31219e-006 2.09729 6.9313 0.0278104 47.7183 -1.07882e-005 1.27705e-005 3.07141 3.8147e-006 -2.38419e-007 -48.6631 -0.00119789 0.00105275 3.37999 1.90735e-006 2.38419e-007 -6.89702e-007 -2.00488e-007 -1.33564e-007 -2.50003 -0.553553 2.03876 -28.9588 6.69584 -170.568 9.47902 -3.55271e-015 -1.77636e-015 -58.9147 -9.7578e-006 -1.45951e-005 8.42617 3.01981e-011 -0.000957489 -34.127 8.06124 5.30145 1.40165 3.97637 1.33752 72.2845 45.692 -20.0546 2.94554 1.20792e-013 -3.8147e-006 -19.6766 0.00490987 -0.0100412 2.52656 3.8147e-006 1.90735e-006 -179.961 2.01959e-005 0.00419744 2.09735 6.93127 -0.028512 68.943 1.78156e-007 1.57557e-007 3.07141 7.62939e-006 9.53675e-007 -29.6929 0.0277949 -0.0245526 3.38 1.90733e-006 0.000725746 -179.963 0.00595393 0.0123077 6.1717 -0.00487137 -0.00014472 2.02699 6.19657 -13.9762 6.15899 -2.02445 -2.78435 -178.154 9.14186 77.7759 3.43915 -1.42109e-014 -7.10543e-015 65.9556 58.0649 -57.8622 10.2529 7.62939e-006 2.84217e-014 -25.8743 2.42531 1.17452 16.2051 -1.90728e-006 -0.00157929 18.3933 -16.0472 1.82788 2.25397 2.19919 0.19194 58.2788 0.472908 7.22903 2.17802 -1.99633 -0.219591 -71.179 -0.213831 10.4187 3.3072 1.42796 0.173676 28.6893 7.87536 11.7853 3.93644 -0.769921 0.58055 -10.8919 -3.1871 29.3498 6.15898 -2.02445 2.78458 1.22269 6.29882 -102.297 3.43915 1.42109e-014 3.8147e-006 -14.5302 -71.2762 -6.33529 10.2529 1.42109e-014 -1.90735e-006 15.5252 -11.5717 0.0786257 16.2051 -6.82121e-013 1.90735e-006 -8.56293 9.27235 7.75807 3.30715 -1.42803 0.173888 -22.5509 1.37646 34.1306 2.25391 -2.19924 0.19203 -66.1749 -5.53751 15.7924 2.17805 1.9963 -0.219301 71.0042 0.179911 11.1499 3.9364 0.769829 0.580936 2.20135 0.493453 26.5094 7.02382 -0.812382 -2.90493e-009 10.998 -2.74261e-006 6.75607e-007 1.54248 3.8147e-006 4.76837e-007 -95.2579 -4.46077 -5.81836 2.10595 -0.356756 0.0332334 -40.343 -0.214683 -178.396 3.42081 -0.77397 -2.25959 -172.17 -23.3571 173.946 3.42081 -0.773978 2.25975 9.65396 24.8403 -9.37223 6.7479 0 -5.96047e-008 2.32843e-007 -3.88074e-008 2.48377e-008 
23.5813 67.5222 2.68541 -39.1221 -89.4432 44.8819 0 0 0 -89.9965 -3.50835e-015 -90 -2.28979 -2.39919 2.66454e-015 -91.6833 77.8469 -101.357 9.67406 -2.38419e-007 7.6294e-006 -6.09203 -9.48873 12.0645 10.5192 5.96046e-008 0 -11.9679 13.6155 19.9883 8.16754 -2.86102e-006 -1.14441e-005 -17.157 10.5416 26.792 2.25378 -0.004879 4.44089e-016 -9.61064 -4.67971 7.20929 -1.90395 -0.175986 -2.65709 -20.4343 -5.21102 174.46 9.47902 7.10543e-015 9.53675e-007 -63.1325 -5.32839e-007 -3.3678e-007 8.42616 7.10543e-015 5.32907e-015 -24.2318 12.7754 3.03406 1.4015 3.97628 -1.33794 104.455 -30.4977 40.4049 2.94554 3.2685e-013 7.10543e-015 -17.6535 -6.56805e-006 8.17456e-006 2.52656 3.8147e-006 -2.8777e-013 -9.32879e-006 4.90149e-006 9.31219e-006 2.09729 6.9313 0.0278104 45.7718 -1.12371e-005 1.23996e-005 3.07141 3.8147e-006 -2.38419e-007 -50.8855 -0.00245115 0.0019923 3.37999 1.90735e-006 2.38419e-007 -6.89702e-007 -2.00488e-007 -1.33564e-007 -2.49857 -0.564409 2.0374 -29.7215 6.64896 -170.636 9.47902 -7.10543e-015 -7.10543e-015 -60.8478 -8.50663e-006 -1.53153e-005 8.42617 3.0397e-011 -0.000957489 -35.3173 7.91522 5.33363 1.40165 3.97637 1.33752 72.2839 45.6922 -20.0541 2.94554 1.35003e-013 -3.8147e-006 -19.6761 0.00469819 -0.00944957 2.52656 3.8147e-006 1.90735e-006 -179.961 2.01959e-005 0.00419744 2.09735 6.93127 -0.028512 67.9069 1.08139e-007 1.96958e-007 3.07141 7.62939e-006 9.53675e-007 -28.1584 0.0257738 -0.0227589 3.38 1.90733e-006 0.000725746 -179.963 0.00595393 0.0123077 6.1717 -0.00487137 -0.00014472 1.63832 6.32536 -13.936 6.15899 -2.02445 -2.78435 -178.154 9.14181 77.7759 3.43915 7.10543e-015 -7.10543e-015 66.5049 58.6727 -57.3445 10.2529 7.62939e-006 1.42109e-014 -25.8743 2.42529 1.17451 16.2051 -1.90727e-006 -0.00157929 18.4183 -15.9249 2.01167 2.25397 2.19919 0.19194 58.2594 0.47077 9.81958 2.17802 -1.99633 -0.219591 -71.1717 -0.213764 10.2881 3.3072 1.42796 0.173676 28.6856 7.84972 9.17887 3.93644 -0.769921 0.58055 -10.8883 -3.1714 31.9329 6.15898 -2.02445 2.78458 1.2227 6.29882 -102.297 3.43915 -1.42109e-014 3.8147e-006 -14.8042 -71.7009 -5.40844 10.2529 1.42109e-014 -1.90735e-006 15.5252 -11.5717 0.0786282 16.2051 -6.46594e-013 1.90735e-006 -8.57625 9.26854 7.54741 3.30715 -1.42803 0.173889 -22.5541 1.36837 31.5285 2.25391 -2.19924 0.19203 -66.1745 -5.51917 18.3815 2.17805 1.9963 -0.219301 71.0088 0.180398 10.7897 3.9364 0.769829 0.580936 2.18005 0.482583 29.0897 7.02382 -0.812382 -2.81526e-009 10.998 -2.74123e-006 6.76814e-007 1.54248 3.8147e-006 4.76837e-007 -94.4207 -4.34899 -5.59348 2.10595 -0.356756 0.0332334 -40.1939 -0.220752 -178.381 3.42081 -0.77397 -2.25959 -173.607 -21.4395 174.902 3.42081 -0.773978 2.25975 8.29025 23.1161 -10.3737 6.7479 1.42109e-014 -5.96047e-008 2.32843e-007 -3.88074e-008 2.48377e-008 
